<svg class="svg-icon" style="width: 1em; height: 1em;vertical-align: middle;fill: currentColor;overflow: hidden;" viewBox="0 0 1024 1024" version="1.1" xmlns="http://www.w3.org/2000/svg"><path d="M403.2 620.8L332.8 576l-57.6 44.8 19.2-83.2-64-51.2h83.2l25.6-83.2 25.6 83.2h76.8l-64 57.6 25.6 76.8M748.8 518.4l-140.8 44.8c-12.8 6.4-25.6 0-32-19.2 0-6.4 6.4-25.6 19.2-32l140.8-51.2c19.2 0 32 12.8 32 25.6s-6.4 25.6-19.2 32zM748.8 620.8l-134.4 51.2c-12.8 6.4-25.6-6.4-32-19.2-6.4-12.8 0-25.6 12.8-32l140.8-44.8c12.8-6.4 25.6 0 32 12.8 0 12.8-6.4 32-19.2 32z" fill="#BAD4FF" /><path d="M748.8 403.2l-140.8 51.2c-12.8 6.4-25.6-6.4-32-19.2-6.4-12.8 6.4-25.6 12.8-32l147.2-44.8c12.8-6.4 25.6 6.4 32 19.2 0 6.4-6.4 25.6-19.2 25.6z" fill="#4E8CEE" /><path d="M838.4 179.2h-12.8l-320 96-320-96h-12.8c-12.8 6.4-19.2 12.8-19.2 25.6v473.6c0 19.2 25.6 51.2 38.4 64l294.4 140.8h32l294.4-140.8c19.2-12.8 38.4-51.2 38.4-70.4V198.4c0-6.4-6.4-19.2-12.8-19.2z m-25.6 70.4v409.6c0 19.2-19.2 51.2-32 57.6l-256 121.6V313.6l268.8-83.2h6.4c12.8 0 12.8 12.8 12.8 19.2z m-332.8 64V832l-249.6-121.6c-12.8-6.4-38.4-32-38.4-44.8V256c0-12.8 6.4-19.2 12.8-19.2h6.4l268.8 76.8z" fill="#4E8CEE" /></svg>